<svg
  width="150"
  height="40"
  viewBox="0 0 150 40"
  fill="none"
  xmlns="http://www.w3.org/2000/svg"
>
  <rect x="0.5" y="0.5" width="149" height="39" rx="4.5" fill="black" />
  <path
    d="M23.8523 24.5H20.7585V15.7727H23.8778C24.7557 15.7727 25.5114 15.9474 26.1449 16.2969C26.7784 16.6435 27.2656 17.142 27.6065 17.7926C27.9503 18.4432 28.1222 19.2216 28.1222 20.1278C28.1222 21.0369 27.9503 21.8182 27.6065 22.4716C27.2656 23.125 26.7756 23.6264 26.1364 23.9759C25.5 24.3253 24.7386 24.5 23.8523 24.5ZM22.6037 22.919H23.7756C24.321 22.919 24.7798 22.8224 25.152 22.6293C25.527 22.4332 25.8082 22.1307 25.9957 21.7216C26.1861 21.3097 26.2812 20.7784 26.2812 20.1278C26.2812 19.483 26.1861 18.956 25.9957 18.5469C25.8082 18.1378 25.5284 17.8366 25.1562 17.6435C24.7841 17.4503 24.3253 17.3537 23.7798 17.3537H22.6037V22.919ZM32.4123 24.6278C31.7504 24.6278 31.1779 24.4872 30.695 24.206C30.2148 23.9219 29.8441 23.527 29.5827 23.0213C29.3214 22.5128 29.1907 21.9233 29.1907 21.2528C29.1907 20.5767 29.3214 19.9858 29.5827 19.4801C29.8441 18.9716 30.2148 18.5767 30.695 18.2955C31.1779 18.0114 31.7504 17.8693 32.4123 17.8693C33.0742 17.8693 33.6452 18.0114 34.1254 18.2955C34.6083 18.5767 34.9805 18.9716 35.2418 19.4801C35.5032 19.9858 35.6339 20.5767 35.6339 21.2528C35.6339 21.9233 35.5032 22.5128 35.2418 23.0213C34.9805 23.527 34.6083 23.9219 34.1254 24.206C33.6452 24.4872 33.0742 24.6278 32.4123 24.6278ZM32.4208 23.2216C32.7219 23.2216 32.9734 23.1364 33.1751 22.9659C33.3768 22.7926 33.5288 22.5568 33.631 22.2585C33.7362 21.9602 33.7887 21.6207 33.7887 21.2401C33.7887 20.8594 33.7362 20.5199 33.631 20.2216C33.5288 19.9233 33.3768 19.6875 33.1751 19.5142C32.9734 19.3409 32.7219 19.2543 32.4208 19.2543C32.1168 19.2543 31.8612 19.3409 31.6538 19.5142C31.4492 19.6875 31.2944 19.9233 31.1893 20.2216C31.087 20.5199 31.0359 20.8594 31.0359 21.2401C31.0359 21.6207 31.087 21.9602 31.1893 22.2585C31.2944 22.5568 31.4492 22.7926 31.6538 22.9659C31.8612 23.1364 32.1168 23.2216 32.4208 23.2216ZM39.7717 24.6278C39.1012 24.6278 38.5245 24.4858 38.0415 24.2017C37.5614 23.9148 37.1921 23.517 36.9336 23.0085C36.6779 22.5 36.5501 21.9148 36.5501 21.2528C36.5501 20.5824 36.6793 19.9943 36.9379 19.4886C37.1992 18.9801 37.57 18.5838 38.0501 18.2997C38.5302 18.0128 39.1012 17.8693 39.7631 17.8693C40.3342 17.8693 40.8342 17.973 41.2631 18.1804C41.6921 18.3878 42.0316 18.679 42.2816 19.054C42.5316 19.429 42.6694 19.8693 42.695 20.375H40.9819C40.9336 20.0483 40.8058 19.7855 40.5984 19.5866C40.3938 19.3849 40.1254 19.2841 39.793 19.2841C39.5117 19.2841 39.266 19.3608 39.0558 19.5142C38.8484 19.6648 38.6864 19.8849 38.57 20.1747C38.4535 20.4645 38.3952 20.8153 38.3952 21.2273C38.3952 21.6449 38.4521 22 38.5657 22.2926C38.6822 22.5852 38.8455 22.8082 39.0558 22.9616C39.266 23.1151 39.5117 23.1918 39.793 23.1918C40.0004 23.1918 40.1864 23.1491 40.3512 23.0639C40.5188 22.9787 40.6566 22.8551 40.7646 22.6932C40.8754 22.5284 40.9478 22.331 40.9819 22.1009H42.695C42.6665 22.6009 42.5302 23.0412 42.2859 23.4219C42.0444 23.7997 41.7106 24.0952 41.2844 24.3082C40.8583 24.5213 40.354 24.6278 39.7717 24.6278ZM48.0547 21.7131V17.9545H49.87V24.5H48.1271V23.3111H48.0589C47.9112 23.6946 47.6655 24.0028 47.3217 24.2358C46.9808 24.4687 46.5646 24.5852 46.0732 24.5852C45.6357 24.5852 45.2507 24.4858 44.9183 24.2869C44.5859 24.0881 44.326 23.8054 44.1385 23.4389C43.9538 23.0724 43.8601 22.6335 43.8572 22.1222V17.9545H45.6726V21.7983C45.6754 22.1847 45.7791 22.4901 45.9837 22.7145C46.1882 22.9389 46.4624 23.0511 46.8061 23.0511C47.0249 23.0511 47.2294 23.0014 47.4197 22.902C47.6101 22.7997 47.7635 22.6491 47.88 22.4503C47.9993 22.2514 48.0575 22.0057 48.0547 21.7131ZM51.3221 24.5V17.9545H53.0522V19.1094H53.1289C53.2653 18.7259 53.4925 18.4233 53.8107 18.2017C54.1289 17.9801 54.5096 17.8693 54.9528 17.8693C55.4016 17.8693 55.7837 17.9815 56.0991 18.206C56.4144 18.4276 56.6246 18.7287 56.7298 19.1094H56.7979C56.9315 18.7344 57.1729 18.4347 57.5224 18.2102C57.8746 17.983 58.2908 17.8693 58.771 17.8693C59.3817 17.8693 59.8775 18.0639 60.2582 18.4531C60.6417 18.8395 60.8335 19.3878 60.8335 20.098V24.5H59.0224V20.456C59.0224 20.0923 58.9258 19.8196 58.7326 19.6378C58.5394 19.456 58.2979 19.3651 58.0082 19.3651C57.6786 19.3651 57.4215 19.4702 57.2369 19.6804C57.0522 19.8878 56.9599 20.1619 56.9599 20.5028V24.5H55.1999V20.4176C55.1999 20.0966 55.1076 19.8409 54.9229 19.6506C54.7411 19.4602 54.5011 19.3651 54.2028 19.3651C54.0011 19.3651 53.8192 19.4162 53.6573 19.5185C53.4982 19.6179 53.3718 19.7585 53.2781 19.9403C53.1843 20.1193 53.1374 20.3295 53.1374 20.571V24.5H51.3221ZM65.2504 24.6278C64.5771 24.6278 63.9975 24.4915 63.5117 24.2188C63.0288 23.9432 62.6566 23.554 62.3952 23.0511C62.1339 22.5455 62.0032 21.9474 62.0032 21.2571C62.0032 20.5838 62.1339 19.9929 62.3952 19.4844C62.6566 18.9759 63.0245 18.5795 63.4989 18.2955C63.9762 18.0114 64.5359 17.8693 65.1779 17.8693C65.6097 17.8693 66.0117 17.9389 66.3839 18.0781C66.7589 18.2145 67.0856 18.4205 67.364 18.696C67.6452 18.9716 67.864 19.3182 68.0202 19.7358C68.1765 20.1506 68.2546 20.6364 68.2546 21.1932V21.6918H62.7276V20.5668H66.5458C66.5458 20.3054 66.489 20.0739 66.3754 19.8722C66.2617 19.6705 66.104 19.5128 65.9023 19.3991C65.7035 19.2827 65.4719 19.2244 65.2077 19.2244C64.9322 19.2244 64.6879 19.2884 64.4748 19.4162C64.2646 19.5412 64.0998 19.7102 63.9805 19.9233C63.8612 20.1335 63.8001 20.3679 63.7972 20.6264V21.696C63.7972 22.0199 63.8569 22.2997 63.9762 22.5355C64.0984 22.7713 64.2702 22.9531 64.4918 23.081C64.7134 23.2088 64.9762 23.2727 65.2802 23.2727C65.4819 23.2727 65.6665 23.2443 65.8342 23.1875C66.0018 23.1307 66.1452 23.0455 66.2646 22.9318C66.3839 22.8182 66.4748 22.679 66.5373 22.5142L68.2163 22.625C68.131 23.0284 67.9563 23.3807 67.6921 23.6818C67.4308 23.9801 67.0927 24.2131 66.6779 24.3807C66.266 24.5455 65.7901 24.6278 65.2504 24.6278ZM71.2546 20.7159V24.5H69.4393V17.9545H71.1694V19.1094H71.2461C71.391 18.7287 71.6339 18.4276 71.9748 18.206C72.3157 17.9815 72.729 17.8693 73.2148 17.8693C73.6694 17.8693 74.0657 17.9688 74.4038 18.1676C74.7418 18.3665 75.0046 18.6506 75.1921 19.0199C75.3796 19.3864 75.4734 19.8239 75.4734 20.3324V24.5H73.658V20.6562C73.6609 20.2557 73.5586 19.9432 73.3512 19.7188C73.1438 19.4915 72.8583 19.3778 72.4947 19.3778C72.2504 19.3778 72.0344 19.4304 71.8469 19.5355C71.6623 19.6406 71.5174 19.794 71.4123 19.9957C71.31 20.1946 71.2575 20.4347 71.2546 20.7159ZM80.3857 17.9545V19.3182H76.4439V17.9545H80.3857ZM77.3388 16.3864H79.1541V22.4886C79.1541 22.6562 79.1797 22.7869 79.2308 22.8807C79.282 22.9716 79.353 23.0355 79.4439 23.0724C79.5376 23.1094 79.6456 23.1278 79.7678 23.1278C79.853 23.1278 79.9382 23.1207 80.0234 23.1065C80.1087 23.0895 80.174 23.0767 80.2195 23.0682L80.505 24.419C80.4141 24.4474 80.2862 24.4801 80.1214 24.517C79.9567 24.5568 79.7564 24.581 79.5206 24.5895C79.0831 24.6065 78.6996 24.5483 78.37 24.4148C78.0433 24.2812 77.7891 24.0739 77.6072 23.7926C77.4254 23.5114 77.3359 23.1562 77.3388 22.7273V16.3864ZM83.4347 24.6236C83.017 24.6236 82.6449 24.5511 82.3182 24.4062C81.9915 24.2585 81.733 24.0412 81.5426 23.7543C81.3551 23.4645 81.2614 23.1037 81.2614 22.6719C81.2614 22.3082 81.3281 22.0028 81.4616 21.7557C81.5952 21.5085 81.777 21.3097 82.0071 21.1591C82.2372 21.0085 82.4986 20.8949 82.7912 20.8182C83.0866 20.7415 83.3963 20.6875 83.7202 20.6562C84.1009 20.6165 84.4077 20.5795 84.6406 20.5455C84.8736 20.5085 85.0426 20.4545 85.1477 20.3835C85.2528 20.3125 85.3054 20.2074 85.3054 20.0682V20.0426C85.3054 19.7727 85.2202 19.5639 85.0497 19.4162C84.8821 19.2685 84.6435 19.1946 84.3338 19.1946C84.0071 19.1946 83.7472 19.267 83.554 19.4119C83.3608 19.554 83.233 19.733 83.1705 19.9489L81.4915 19.8125C81.5767 19.4148 81.7443 19.071 81.9943 18.7812C82.2443 18.4886 82.5668 18.2642 82.9616 18.108C83.3594 17.9489 83.8196 17.8693 84.3423 17.8693C84.706 17.8693 85.054 17.9119 85.3864 17.9972C85.7216 18.0824 86.0185 18.2145 86.277 18.3935C86.5384 18.5724 86.7443 18.8026 86.8949 19.0838C87.0455 19.3622 87.1207 19.696 87.1207 20.0852V24.5H85.3991V23.5923H85.348C85.2429 23.7969 85.1023 23.9773 84.9261 24.1335C84.75 24.2869 84.5384 24.4077 84.2912 24.4957C84.044 24.581 83.7585 24.6236 83.4347 24.6236ZM83.9545 23.3707C84.2216 23.3707 84.4574 23.3182 84.6619 23.2131C84.8665 23.1051 85.027 22.9602 85.1435 22.7784C85.2599 22.5966 85.3182 22.3906 85.3182 22.1605V21.4659C85.2614 21.5028 85.1832 21.5369 85.0838 21.5682C84.9872 21.5966 84.8778 21.6236 84.7557 21.6491C84.6335 21.6719 84.5114 21.6932 84.3892 21.7131C84.267 21.7301 84.1562 21.7457 84.0568 21.7599C83.8438 21.7912 83.6577 21.8409 83.4986 21.9091C83.3395 21.9773 83.2159 22.0696 83.1278 22.1861C83.0398 22.2997 82.9957 22.4418 82.9957 22.6122C82.9957 22.8594 83.0852 23.0483 83.2642 23.179C83.446 23.3068 83.6761 23.3707 83.9545 23.3707ZM92.0107 17.9545V19.3182H88.0689V17.9545H92.0107ZM88.9638 16.3864H90.7791V22.4886C90.7791 22.6562 90.8047 22.7869 90.8558 22.8807C90.907 22.9716 90.978 23.0355 91.0689 23.0724C91.1626 23.1094 91.2706 23.1278 91.3928 23.1278C91.478 23.1278 91.5632 23.1207 91.6484 23.1065C91.7337 23.0895 91.799 23.0767 91.8445 23.0682L92.13 24.419C92.0391 24.4474 91.9112 24.4801 91.7464 24.517C91.5817 24.5568 91.3814 24.581 91.1456 24.5895C90.7081 24.6065 90.3246 24.5483 89.995 24.4148C89.6683 24.2812 89.4141 24.0739 89.2322 23.7926C89.0504 23.5114 88.9609 23.1562 88.9638 22.7273V16.3864ZM93.1932 24.5V17.9545H95.0085V24.5H93.1932ZM94.1051 17.1108C93.8352 17.1108 93.6037 17.0213 93.4105 16.8423C93.2202 16.6605 93.125 16.4432 93.125 16.1903C93.125 15.9403 93.2202 15.7259 93.4105 15.5469C93.6037 15.3651 93.8352 15.2741 94.1051 15.2741C94.375 15.2741 94.6051 15.3651 94.7955 15.5469C94.9886 15.7259 95.0852 15.9403 95.0852 16.1903C95.0852 16.4432 94.9886 16.6605 94.7955 16.8423C94.6051 17.0213 94.375 17.1108 94.1051 17.1108ZM99.4201 24.6278C98.7582 24.6278 98.1857 24.4872 97.7028 24.206C97.2227 23.9219 96.8519 23.527 96.5906 23.0213C96.3292 22.5128 96.1985 21.9233 96.1985 21.2528C96.1985 20.5767 96.3292 19.9858 96.5906 19.4801C96.8519 18.9716 97.2227 18.5767 97.7028 18.2955C98.1857 18.0114 98.7582 17.8693 99.4201 17.8693C100.082 17.8693 100.653 18.0114 101.133 18.2955C101.616 18.5767 101.988 18.9716 102.25 19.4801C102.511 19.9858 102.642 20.5767 102.642 21.2528C102.642 21.9233 102.511 22.5128 102.25 23.0213C101.988 23.527 101.616 23.9219 101.133 24.206C100.653 24.4872 100.082 24.6278 99.4201 24.6278ZM99.4286 23.2216C99.7298 23.2216 99.9812 23.1364 100.183 22.9659C100.385 22.7926 100.537 22.5568 100.639 22.2585C100.744 21.9602 100.797 21.6207 100.797 21.2401C100.797 20.8594 100.744 20.5199 100.639 20.2216C100.537 19.9233 100.385 19.6875 100.183 19.5142C99.9812 19.3409 99.7298 19.2543 99.4286 19.2543C99.1246 19.2543 98.869 19.3409 98.6616 19.5142C98.457 19.6875 98.3022 19.9233 98.1971 20.2216C98.0948 20.5199 98.0437 20.8594 98.0437 21.2401C98.0437 21.6207 98.0948 21.9602 98.1971 22.2585C98.3022 22.5568 98.457 22.7926 98.6616 22.9659C98.869 23.1364 99.1246 23.2216 99.4286 23.2216ZM105.637 20.7159V24.5H103.822V17.9545H105.552V19.1094H105.629C105.774 18.7287 106.017 18.4276 106.358 18.206C106.699 17.9815 107.112 17.8693 107.598 17.8693C108.052 17.8693 108.449 17.9688 108.787 18.1676C109.125 18.3665 109.387 18.6506 109.575 19.0199C109.762 19.3864 109.856 19.8239 109.856 20.3324V24.5H108.041V20.6562C108.044 20.2557 107.941 19.9432 107.734 19.7188C107.527 19.4915 107.241 19.3778 106.877 19.3778C106.633 19.3778 106.417 19.4304 106.23 19.5355C106.045 19.6406 105.9 19.794 105.795 19.9957C105.693 20.1946 105.64 20.4347 105.637 20.7159Z"
    fill="#F1C86C"
  />
  <g clip-path="url(#clip0_2108_644)">
    <path
      d="M126 14L124.59 15.41L129.17 20L124.59 24.59L126 26L132 20L126 14Z"
      fill="#F1C86C"
    />
  </g>
  <rect x="0.5" y="0.5" width="149" height="39" rx="4.5" stroke="#F1C86C" />
  <defs>
    <clipPath id="clip0_2108_644">
      <rect width="24" height="24" fill="white" transform="translate(116 8)" />
    </clipPath>
  </defs>
</svg>
