<svg width="124" height="40" viewBox="0 0 124 40" fill="none" xmlns="http://www.w3.org/2000/svg">
<rect width="123.574" height="40" rx="5" fill="white"/>
<path fill-rule="evenodd" clip-rule="evenodd" d="M98.1639 14.8645L99.5739 13.4545L105.574 19.4545L99.5739 25.4545L98.1639 24.0445L102.744 19.4545L98.1639 14.8645ZM20 15.2273V16.7486H22.6719V23.9545H24.4957V16.7486H27.1676V15.2273H20ZM28.609 23.6733C29.0948 23.946 29.6744 24.0824 30.3477 24.0824C30.8874 24.0824 31.3633 24 31.7752 23.8352C32.19 23.6676 32.5281 23.4346 32.7894 23.1363C33.0536 22.8352 33.2283 22.4829 33.3136 22.0795L31.6346 21.9687C31.5721 22.1335 31.4812 22.2727 31.3619 22.3863C31.2425 22.5 31.0991 22.5852 30.9315 22.642C30.7639 22.6988 30.5792 22.7273 30.3775 22.7273C30.0735 22.7273 29.8107 22.6633 29.5891 22.5355C29.3675 22.4077 29.1957 22.2258 29.0735 21.99C28.9542 21.7542 28.8945 21.4744 28.8945 21.1506V21.1463H33.3519V20.6477C33.3519 20.0909 33.2738 19.6051 33.1175 19.1903C32.9613 18.7727 32.7425 18.4261 32.4613 18.1506C32.1829 17.875 31.8562 17.669 31.4812 17.5327C31.109 17.3934 30.707 17.3238 30.2752 17.3238C29.6332 17.3238 29.0735 17.4659 28.5962 17.75C28.1218 18.0341 27.7539 18.4304 27.4925 18.9389C27.2312 19.4474 27.1005 20.0383 27.1005 20.7116C27.1005 21.402 27.2312 22 27.4925 22.5057C27.7539 23.0085 28.1261 23.3977 28.609 23.6733ZM28.8962 20.0213C28.9072 19.7863 28.9677 19.5718 29.0778 19.3778C29.1971 19.1648 29.3619 18.9957 29.5721 18.8707C29.7852 18.7429 30.0295 18.679 30.305 18.679C30.5692 18.679 30.8008 18.7372 30.9996 18.8537C31.2014 18.9673 31.359 19.125 31.4727 19.3267C31.5863 19.5284 31.6431 19.7599 31.6431 20.0213H28.8962ZM35.2866 23.8608C35.6133 24.0057 35.9854 24.0781 36.4031 24.0781C36.7269 24.0781 37.0124 24.0355 37.2596 23.9503C37.5067 23.8622 37.7184 23.7415 37.8945 23.5881C38.0707 23.4318 38.2113 23.2514 38.3164 23.0469H38.3675V23.9545H40.0891V19.5398C40.0891 19.1506 40.0138 18.8167 39.8633 18.5383C39.7127 18.2571 39.5067 18.027 39.2454 17.848C38.9869 17.669 38.69 17.5369 38.3548 17.4517C38.0224 17.3665 37.6744 17.3238 37.3107 17.3238C36.788 17.3238 36.3278 17.4034 35.93 17.5625C35.5352 17.7187 35.2127 17.9432 34.9627 18.2358C34.7127 18.5256 34.5451 18.8693 34.4599 19.267L36.1388 19.4034C36.2013 19.1875 36.3292 19.0085 36.5224 18.8665C36.7156 18.7216 36.9755 18.6491 37.3022 18.6491C37.6119 18.6491 37.8505 18.723 38.0181 18.8707C38.1886 19.0184 38.2738 19.2273 38.2738 19.4971V19.5227C38.2738 19.6619 38.2212 19.767 38.1161 19.8381C38.011 19.9091 37.842 19.9631 37.609 20C37.3761 20.0341 37.0692 20.071 36.6886 20.1108C36.3647 20.142 36.055 20.196 35.7596 20.2727C35.467 20.3494 35.2056 20.4631 34.9755 20.6136C34.7454 20.7642 34.5636 20.9631 34.43 21.2102C34.2965 21.4574 34.2298 21.7628 34.2298 22.1264C34.2298 22.5582 34.3235 22.919 34.511 23.2088C34.7014 23.4957 34.9599 23.7131 35.2866 23.8608ZM37.6303 22.6676C37.4258 22.7727 37.19 22.8253 36.9229 22.8253C36.6445 22.8253 36.4144 22.7613 36.2326 22.6335C36.0536 22.5028 35.9641 22.3139 35.9641 22.0667C35.9641 21.8963 36.0082 21.7542 36.0962 21.6406C36.1843 21.5241 36.3079 21.4318 36.467 21.3636C36.6261 21.2954 36.8121 21.2457 37.0252 21.2145C37.1246 21.2003 37.2354 21.1846 37.3576 21.1676C37.4798 21.1477 37.6019 21.1264 37.7241 21.1037C37.8462 21.0781 37.9556 21.0511 38.0522 21.0227C38.1516 20.9915 38.2298 20.9574 38.2866 20.9204V21.615C38.2866 21.8452 38.2283 22.0511 38.1119 22.2329C37.9954 22.4148 37.8349 22.5596 37.6303 22.6676ZM41.4975 17.4091V23.9545H43.3129V20.0256C43.3129 19.7841 43.3597 19.5738 43.4535 19.3949C43.5472 19.2131 43.6737 19.0724 43.8327 18.973C43.9947 18.8707 44.1765 18.8196 44.3782 18.8196C44.6765 18.8196 44.9165 18.9148 45.0984 19.1051C45.283 19.2954 45.3754 19.5511 45.3754 19.8721V23.9545H47.1353V19.9574C47.1353 19.6165 47.2276 19.3423 47.4123 19.1349C47.5969 18.9247 47.854 18.8196 48.1836 18.8196C48.4734 18.8196 48.7148 18.9105 48.908 19.0923C49.1012 19.2741 49.1978 19.5469 49.1978 19.9105V23.9545H51.0089V19.5525C51.0089 18.8423 50.8171 18.294 50.4336 17.9077C50.0529 17.5184 49.5572 17.3238 48.9464 17.3238C48.4663 17.3238 48.0501 17.4375 47.6978 17.6648C47.3484 17.8892 47.1069 18.1889 46.9734 18.5639H46.9052C46.8001 18.1832 46.5898 17.8821 46.2745 17.6605C45.9592 17.4361 45.5771 17.3238 45.1282 17.3238C44.685 17.3238 44.3043 17.4346 43.9862 17.6562C43.668 17.8778 43.4407 18.1804 43.3043 18.5639H43.2276V17.4091H41.4975ZM55.2202 17.4091V26.4091H57.0355V22.9062H57.0909C57.1733 23.0881 57.2926 23.2684 57.4489 23.4474C57.6051 23.6236 57.8054 23.7699 58.0497 23.8863C58.2969 24.0028 58.5966 24.0611 58.9489 24.0611C59.446 24.0611 59.8949 23.9332 60.2955 23.6775C60.6989 23.419 61.017 23.0398 61.25 22.5398C61.4858 22.0369 61.6037 21.4204 61.6037 20.6903C61.6037 19.9403 61.483 19.3167 61.2415 18.8196C61 18.3196 60.6776 17.946 60.2741 17.6988C59.8707 17.4488 59.4304 17.3238 58.9531 17.3238C58.5866 17.3238 58.2798 17.3863 58.0327 17.5113C57.7884 17.6335 57.5895 17.7869 57.4361 17.9716C57.2855 18.1534 57.1705 18.3324 57.0909 18.5085H57.0099V17.4091H55.2202ZM57.1591 21.7003C57.0511 21.4105 56.9972 21.071 56.9972 20.6818C56.9972 20.2926 57.0511 19.9545 57.1591 19.6676C57.267 19.3807 57.4219 19.1591 57.6236 19.0028C57.8281 18.8466 58.0781 18.7684 58.3736 18.7684C58.6719 18.7684 58.9233 18.8494 59.1278 19.0113C59.3324 19.1733 59.4872 19.3977 59.5923 19.6846C59.6974 19.9716 59.75 20.304 59.75 20.6818C59.75 21.0625 59.696 21.3991 59.5881 21.6917C59.483 21.9815 59.3281 22.2088 59.1236 22.3736C58.919 22.5355 58.669 22.6165 58.3736 22.6165C58.081 22.6165 57.8324 22.5369 57.6278 22.3778C57.4233 22.2159 57.267 21.99 57.1591 21.7003ZM63.5639 23.8608C63.8906 24.0057 64.2628 24.0781 64.6804 24.0781C65.0043 24.0781 65.2898 24.0355 65.5369 23.9503C65.7841 23.8622 65.9957 23.7415 66.1719 23.5881C66.348 23.4318 66.4886 23.2514 66.5938 23.0469H66.6449V23.9545H68.3665V19.5398C68.3665 19.1506 68.2912 18.8167 68.1406 18.5383C67.9901 18.2571 67.7841 18.027 67.5227 17.848C67.2642 17.669 66.9673 17.5369 66.6321 17.4517C66.2997 17.3665 65.9517 17.3238 65.5881 17.3238C65.0653 17.3238 64.6051 17.4034 64.2074 17.5625C63.8125 17.7187 63.4901 17.9432 63.2401 18.2358C62.9901 18.5256 62.8224 18.8693 62.7372 19.267L64.4162 19.4034C64.4787 19.1875 64.6065 19.0085 64.7997 18.8665C64.9929 18.7216 65.2528 18.6491 65.5795 18.6491C65.8892 18.6491 66.1278 18.723 66.2955 18.8707C66.4659 19.0184 66.5511 19.2273 66.5511 19.4971V19.5227C66.5511 19.6619 66.4986 19.767 66.3935 19.8381C66.2884 19.9091 66.1193 19.9631 65.8864 20C65.6534 20.0341 65.3466 20.071 64.9659 20.1108C64.642 20.142 64.3324 20.196 64.0369 20.2727C63.7443 20.3494 63.483 20.4631 63.2528 20.6136C63.0227 20.7642 62.8409 20.9631 62.7074 21.2102C62.5739 21.4574 62.5071 21.7628 62.5071 22.1264C62.5071 22.5582 62.6009 22.919 62.7884 23.2088C62.9787 23.4957 63.2372 23.7131 63.5639 23.8608ZM65.9077 22.6676C65.7031 22.7727 65.4673 22.8253 65.2003 22.8253C64.9219 22.8253 64.6918 22.7613 64.5099 22.6335C64.331 22.5028 64.2415 22.3139 64.2415 22.0667C64.2415 21.8963 64.2855 21.7542 64.3736 21.6406C64.4616 21.5241 64.5852 21.4318 64.7443 21.3636C64.9034 21.2954 65.0895 21.2457 65.3026 21.2145C65.402 21.2003 65.5128 21.1846 65.6349 21.1676C65.7571 21.1477 65.8793 21.1264 66.0014 21.1037C66.1236 21.0781 66.233 21.0511 66.3295 21.0227C66.429 20.9915 66.5071 20.9574 66.5639 20.9204V21.615C66.5639 21.8452 66.5057 22.0511 66.3892 22.2329C66.2727 22.4148 66.1122 22.5596 65.9077 22.6676ZM71.2109 26.3025C71.6314 26.4645 72.1357 26.5454 72.7237 26.5454C73.3487 26.5454 73.9013 26.4503 74.3814 26.2599C74.8643 26.0724 75.2422 25.7912 75.5149 25.4162C75.7876 25.0412 75.924 24.5753 75.924 24.0184V17.4091H74.1214V18.5085H74.0533C73.9709 18.3324 73.853 18.1534 73.6996 17.9716C73.549 17.7869 73.3501 17.6335 73.103 17.5113C72.8558 17.3863 72.549 17.3238 72.1825 17.3238C71.7024 17.3238 71.2607 17.4474 70.8572 17.6946C70.4567 17.9417 70.1357 18.3139 69.8942 18.8111C69.6527 19.3082 69.532 19.9275 69.532 20.669C69.532 21.3934 69.6499 21.9929 69.8857 22.4673C70.1243 22.9389 70.4439 23.2898 70.8445 23.5199C71.2479 23.7471 71.6953 23.8608 72.1868 23.8608C72.5334 23.8608 72.8317 23.8096 73.0817 23.7074C73.3317 23.6051 73.5362 23.473 73.6953 23.3111C73.8544 23.1491 73.9737 22.9773 74.0533 22.7954H74.13V23.9929C74.13 24.4417 74.0007 24.7613 73.7422 24.9517C73.4865 25.1449 73.1612 25.2415 72.7663 25.2415C72.5021 25.2415 72.2777 25.2059 72.093 25.1349C71.9112 25.0667 71.7649 24.9758 71.6541 24.8622C71.5433 24.7486 71.4624 24.6264 71.4112 24.4957L69.7322 24.7216C69.8061 25.0653 69.9666 25.375 70.2138 25.6506C70.4609 25.9261 70.7933 26.1434 71.2109 26.3025ZM73.5036 22.2798C73.3018 22.4247 73.0547 22.4971 72.7621 22.4971C72.4638 22.4971 72.2124 22.4233 72.0078 22.2756C71.8061 22.125 71.6513 21.9133 71.5433 21.6406C71.4382 21.365 71.3857 21.0383 71.3857 20.6605C71.3857 20.2883 71.4382 19.9602 71.5433 19.6761C71.6484 19.392 71.8033 19.1704 72.0078 19.0113C72.2124 18.8494 72.4638 18.7684 72.7621 18.7684C73.0547 18.7684 73.3033 18.8466 73.5078 19.0028C73.7124 19.1591 73.8686 19.3792 73.9766 19.6633C74.0845 19.9446 74.1385 20.277 74.1385 20.6605C74.1385 21.044 74.0831 21.3736 73.9723 21.6491C73.8643 21.9219 73.7081 22.1321 73.5036 22.2798ZM78.6129 23.6733C79.0987 23.946 79.6783 24.0824 80.3516 24.0824C80.8913 24.0824 81.3672 24 81.7791 23.8352C82.1939 23.6676 82.532 23.4346 82.7933 23.1363C83.0575 22.8352 83.2322 22.4829 83.3175 22.0795L81.6385 21.9687C81.576 22.1335 81.4851 22.2727 81.3658 22.3863C81.2464 22.5 81.103 22.5852 80.9354 22.642C80.7678 22.6988 80.5831 22.7273 80.3814 22.7273C80.0774 22.7273 79.8146 22.6633 79.593 22.5355C79.3714 22.4077 79.1996 22.2258 79.0774 21.99C78.9581 21.7542 78.8984 21.4744 78.8984 21.1506V21.1463H83.3558V20.6477C83.3558 20.0909 83.2777 19.6051 83.1214 19.1903C82.9652 18.7727 82.7464 18.4261 82.4652 18.1506C82.1868 17.875 81.8601 17.669 81.4851 17.5327C81.1129 17.3934 80.7109 17.3238 80.2791 17.3238C79.6371 17.3238 79.0774 17.4659 78.6001 17.75C78.1257 18.0341 77.7578 18.4304 77.4964 18.9389C77.2351 19.4474 77.1044 20.0383 77.1044 20.7116C77.1044 21.402 77.2351 22 77.4964 22.5057C77.7578 23.0085 78.13 23.3977 78.6129 23.6733ZM78.9001 20.0213C78.9111 19.7863 78.9716 19.5718 79.0817 19.3778C79.201 19.1648 79.3658 18.9957 79.576 18.8707C79.7891 18.7429 80.0334 18.679 80.3089 18.679C80.5732 18.679 80.8047 18.7372 81.0036 18.8537C81.2053 18.9673 81.3629 19.125 81.4766 19.3267C81.5902 19.5284 81.647 19.7599 81.647 20.0213H78.9001Z" fill="url(#paint0_linear_2106_644)"/>
<defs>
<linearGradient id="paint0_linear_2106_644" x1="20" y1="13" x2="106" y2="27" gradientUnits="userSpaceOnUse">
<stop stop-color="#DB00FF"/>
<stop offset="1" stop-color="#8000FF"/>
</linearGradient>
</defs>
</svg>
