<svg width="112" height="40" viewBox="0 0 112 40" fill="none" xmlns="http://www.w3.org/2000/svg">
<rect width="112" height="40" rx="5" fill="#F1C86C"/>
<path d="M20.4261 17.294V15.7727H27.5938V17.294H24.9219V24.5H23.098V17.294H20.4261ZM28.0604 24.5V17.9545H29.8203V19.0966H29.8885C30.0078 18.6903 30.2081 18.3835 30.4893 18.1761C30.7706 17.9659 31.0945 17.8608 31.4609 17.8608C31.5518 17.8608 31.6499 17.8665 31.755 17.8778C31.8601 17.8892 31.9524 17.9048 32.032 17.9247V19.5355C31.9467 19.5099 31.8288 19.4872 31.6783 19.4673C31.5277 19.4474 31.3899 19.4375 31.2649 19.4375C30.9979 19.4375 30.7592 19.4957 30.549 19.6122C30.3416 19.7259 30.1768 19.8849 30.0547 20.0895C29.9354 20.294 29.8757 20.5298 29.8757 20.7969V24.5H28.0604ZM34.2905 26.9545C34.0604 26.9545 33.8445 26.9361 33.6428 26.8991C33.4439 26.8651 33.2791 26.821 33.1484 26.767L33.5575 25.4119C33.7706 25.4773 33.9624 25.5128 34.1328 25.5185C34.3061 25.5241 34.4553 25.4844 34.5803 25.3991C34.7081 25.3139 34.8118 25.169 34.8913 24.9645L34.9979 24.6875L32.6499 17.9545H34.5589L35.9141 22.7614H35.9822L37.3501 17.9545H39.272L36.728 25.2074C36.6058 25.5597 36.4396 25.8665 36.2294 26.1278C36.022 26.392 35.7592 26.5952 35.4411 26.7372C35.1229 26.8821 34.7393 26.9545 34.2905 26.9545ZM42.9783 24.5V17.9545H44.7937V24.5H42.9783ZM43.8903 17.1108C43.6204 17.1108 43.3888 17.0213 43.1957 16.8423C43.0053 16.6605 42.9102 16.4432 42.9102 16.1903C42.9102 15.9403 43.0053 15.7259 43.1957 15.5469C43.3888 15.3651 43.6204 15.2741 43.8903 15.2741C44.1602 15.2741 44.3903 15.3651 44.5806 15.5469C44.7738 15.7259 44.8704 15.9403 44.8704 16.1903C44.8704 16.4432 44.7738 16.6605 44.5806 16.8423C44.3903 17.0213 44.1602 17.1108 43.8903 17.1108ZM49.7294 17.9545V19.3182H45.7876V17.9545H49.7294ZM46.6825 16.3864H48.4979V22.4886C48.4979 22.6562 48.5234 22.7869 48.5746 22.8807C48.6257 22.9716 48.6967 23.0355 48.7876 23.0724C48.8814 23.1094 48.9893 23.1278 49.1115 23.1278C49.1967 23.1278 49.282 23.1207 49.3672 23.1065C49.4524 23.0895 49.5178 23.0767 49.5632 23.0682L49.8487 24.419C49.7578 24.4474 49.63 24.4801 49.4652 24.517C49.3004 24.5568 49.1001 24.581 48.8643 24.5895C48.4268 24.6065 48.0433 24.5483 47.7138 24.4148C47.3871 24.2812 47.1328 24.0739 46.951 23.7926C46.7692 23.5114 46.6797 23.1562 46.6825 22.7273V16.3864ZM56.6467 24.6278C55.9847 24.6278 55.4123 24.4872 54.9293 24.206C54.4492 23.9219 54.0785 23.527 53.8171 23.0213C53.5558 22.5128 53.4251 21.9233 53.4251 21.2528C53.4251 20.5767 53.5558 19.9858 53.8171 19.4801C54.0785 18.9716 54.4492 18.5767 54.9293 18.2955C55.4123 18.0114 55.9847 17.8693 56.6467 17.8693C57.3086 17.8693 57.8796 18.0114 58.3597 18.2955C58.8427 18.5767 59.2148 18.9716 59.4762 19.4801C59.7376 19.9858 59.8683 20.5767 59.8683 21.2528C59.8683 21.9233 59.7376 22.5128 59.4762 23.0213C59.2148 23.527 58.8427 23.9219 58.3597 24.206C57.8796 24.4872 57.3086 24.6278 56.6467 24.6278ZM56.6552 23.2216C56.9563 23.2216 57.2077 23.1364 57.4094 22.9659C57.6112 22.7926 57.7631 22.5568 57.8654 22.2585C57.9705 21.9602 58.0231 21.6207 58.0231 21.2401C58.0231 20.8594 57.9705 20.5199 57.8654 20.2216C57.7631 19.9233 57.6112 19.6875 57.4094 19.5142C57.2077 19.3409 56.9563 19.2543 56.6552 19.2543C56.3512 19.2543 56.0955 19.3409 55.8881 19.5142C55.6836 19.6875 55.5288 19.9233 55.4237 20.2216C55.3214 20.5199 55.2702 20.8594 55.2702 21.2401C55.2702 21.6207 55.3214 21.9602 55.4237 22.2585C55.5288 22.5568 55.6836 22.7926 55.8881 22.9659C56.0955 23.1364 56.3512 23.2216 56.6552 23.2216ZM65.2461 21.7131V17.9545H67.0614V24.5H65.3185V23.3111H65.2504C65.1026 23.6946 64.8569 24.0028 64.5131 24.2358C64.1722 24.4687 63.756 24.5852 63.2646 24.5852C62.8271 24.5852 62.4421 24.4858 62.1097 24.2869C61.7773 24.0881 61.5174 23.8054 61.3299 23.4389C61.1452 23.0724 61.0515 22.6335 61.0487 22.1222V17.9545H62.864V21.7983C62.8668 22.1847 62.9705 22.4901 63.1751 22.7145C63.3796 22.9389 63.6538 23.0511 63.9975 23.0511C64.2163 23.0511 64.4208 23.0014 64.6112 22.902C64.8015 22.7997 64.9549 22.6491 65.0714 22.4503C65.1907 22.2514 65.2489 22.0057 65.2461 21.7131ZM71.995 17.9545V19.3182H68.0533V17.9545H71.995ZM68.9482 16.3864H70.7635V22.4886C70.7635 22.6562 70.7891 22.7869 70.8402 22.8807C70.8913 22.9716 70.9624 23.0355 71.0533 23.0724C71.147 23.1094 71.255 23.1278 71.3771 23.1278C71.4624 23.1278 71.5476 23.1207 71.6328 23.1065C71.718 23.0895 71.7834 23.0767 71.8288 23.0682L72.1143 24.419C72.0234 24.4474 71.8956 24.4801 71.7308 24.517C71.5661 24.5568 71.3658 24.581 71.13 24.5895C70.6925 24.6065 70.3089 24.5483 69.9794 24.4148C69.6527 24.2812 69.3984 24.0739 69.2166 23.7926C69.0348 23.5114 68.9453 23.1562 68.9482 22.7273V16.3864Z" fill="black"/>
<g clip-path="url(#clip0_2105_639)">
<path d="M88.0001 14L86.5901 15.41L91.1701 20L86.5901 24.59L88.0001 26L94.0001 20L88.0001 14Z" fill="black"/>
</g>
<defs>
<clipPath id="clip0_2105_639">
<rect width="24" height="24" fill="white" transform="translate(78 8)"/>
</clipPath>
</defs>
</svg>
